<?xml version="1.0" encoding="UTF-8" standalone="no"?>
<svg width="256px" height="256px" viewBox="0 0 256 256" version="1.1" xmlns="http://www.w3.org/2000/svg" xmlns:xlink="http://www.w3.org/1999/xlink" preserveAspectRatio="xMidYMid">
	<g>
		<rect fill="#FFFFFF" x="0" y="0" width="256" height="256" rx="32"></rect>
		<path d="M61.0908952,85.6165814 C61.3045665,83.5054371 60.4994954,81.4188058 58.9230865,79.9979257 L42.8652446,60.6536969 L42.8652446,57.5886909 L82.7300688,57.5886909 L113.194023,123.258411 L139.861554,57.5886909 L177.908381,57.5886909 L177.908381,60.6536969 L164.402372,73.553085 C163.222328,74.4374063 162.61338,75.7890765 162.727298,77.1583704 L162.727298,174.95414 C162.61338,176.323434 163.222328,177.675104 164.402372,178.559426 L177.64305,191.458915 L177.64305,194.52392 L129.465868,194.52392 L129.465868,191.458915 L143.030531,178.295701 C144.385113,176.941089 144.385113,176.543378 144.385113,174.680947 L144.385113,95.2283255 L114.985885,194.22906 L109.851909,194.22906 L76.3230339,95.2283255 L76.3230339,161.510742 C76.0804403,163.967422 76.8260884,166.422154 78.4483136,168.174879 L96.0991249,191.201462 L96.0991249,194.266466 L60.7396924,194.266466 L60.7396924,191.201462 L78.3900253,168.174879 C80.0059472,166.419307 80.7072344,163.953541 80.4267613,161.510742 L80.4267613,88.7156698 C80.5201067,86.7704415 79.8438341,84.8665323 78.5904417,83.4070641 L61.0908952,60.6536969 L61.0908952,57.5886909 L96.0079415,57.5886909 L124.553572,141.086016 L150.034532,57.5886909 L184.756298,57.5886909 L184.756298,60.6536969 L171.248882,73.2978881 C170.068838,74.1822094 169.45989,75.5338796 169.573808,76.9031735 L169.573808,177.114869 C169.45989,178.484163 170.068838,179.835833 171.248882,180.720154 L184.756298,193.364124 L184.756298,196.429128 L134.881753,196.429128 L134.881753,193.364124 L148.610534,180.486429 C149.791577,179.602108 150.400525,178.250437 150.286607,176.881143 L150.286607,86.6500511 L123.666997,196.429128 L118.003462,196.429128 L87.6324841,86.6500511 L87.6324841,164.184936 C87.390074,166.641616 88.1357217,169.096349 89.7579467,170.849073 L108.493972,193.181601 L108.493972,196.246606 L61.0908952,196.246606 L61.0908952,193.181601 L79.8266564,170.849073 C81.4425784,169.093501 82.1438655,166.627736 81.8633923,164.184936 L81.8633923,85.6165814 L61.0908952,85.6165814 Z" fill="#000000"></path>
	</g>
</svg>
