<svg xmlns="http://www.w3.org/2000/svg" version="1.1" xmlns:xlink="http://www.w3.org/1999/xlink" xmlns:svgjs="http://svgjs.dev/svgjs" width="1500" height="1500" viewBox="0 0 1500 1500"><rect width="1500" height="1500" fill="#ffffff"></rect><g transform="matrix(0.6666666666666666,0,0,0.6666666666666666,248.58751435190163,280.8254276364452)"><svg viewBox="0 0 265 248" data-background-color="#102e44" preserveAspectRatio="xMidYMid meet" height="1403" width="1500" xmlns="http://www.w3.org/2000/svg" xmlns:xlink="http://www.w3.org/1999/xlink"><g id="tight-bounds" transform="matrix(1,0,0,1,0.374323292390784,0.40002634420794436)"><svg viewBox="0 0 264.25130666666666 247.19999999999996" height="247.19999999999996" width="264.25130666666666"><g><svg viewBox="0 0 264.25130666666666 247.19999999999996" height="247.19999999999996" width="264.25130666666666"><g><svg viewBox="0 0 264.25130666666666 247.19999999999996" height="247.19999999999996" width="264.25130666666666"><g id="textblocktransform"><svg viewBox="0 0 264.25130666666666 247.19999999999996" height="247.19999999999996" width="264.25130666666666" id="textblock"><g><svg viewBox="0 0 264.25130666666666 247.19999999999996" height="247.19999999999996" width="264.25130666666666"><path d="M263.633 53.02C262.39 27.36 258.85 20.227 258.85 20.227 247.98-6.202 234.414-0.506 222.227 3.292 200.71 3.446 179.28 9.091 157.813 12.119 112.755 12.581 67.312 4.986 22.477 23.717 18.266 29.464-4.369 24.846 0.749 56.304 2.091 69.39 6.985 83.913 6.836 95.922 7.507 98.026 8.439 93.202 8.836 96.23 10.228 104.39 12.501 100.541 14.365 105.365 11.768 118.246 13.632 128.971 15.408 140.21 12.278 143.135 8.265 141.749 6.464 151.449 6.277 158.479 5.271 157.145 4.165 156.837 3.358 156.632 1.731 157.402 2.004 159.608 2.936 167.152-1.065 171.514 1.445 178.904-0.282 186.91 2.637 193.838 2.24 202.511 2.19 204.255 2.463 205.744 2.898 206.154 4.824 208.361 2.016 212.672 2.314 217.342 22.067 249.262 43.497 227.195 63.734 241.872 68.989 231.608 65.038 245.516 67.138 243.36 68.778 240.846 69.97 251.263 71.821 245.362 72.107 243.668 71.672 239.665 72.691 240.435 73.225 240.846 73.697 240.743 73.772 238.382 73.883 234.841 72.902 237.048 72.641 235.201 75.461 225.861 74.765 248.081 77.412 247.158 77.287 244.438 76.517 240.538 78.095 241.051 79.66 237.151 79.71 233.918 81.101 242.693 81.151 244.592 81.399 245.926 81.797 246.85 86.145 237.305 90.468 250.237 95.027 245.926 97.823 241.205 100.506 248.492 103.338 246.696 104.332 245.259 105.339 242.693 106.295 247.004 118.01 247.928 130.495 244.079 141.601 247.158 171.28 241.41 202.996 249.518 234.289 241.923 241.669 238.998 249.334 234.841 256.527 231.506 256.527 231.506 262.353 222.371 262.353 181.316S263.595 145.393 263.782 112.703C263.968 80.013 264.838 78.679 263.595 53.02Z" opacity="1" fill="#000000" data-fill-palette-color="tertiary"></path><g transform="matrix(1,0,0,1,55.76832000000002,26.230666666666668)"><svg width="152.71466666666663" viewBox="2.35 -35.4 27.799999999999997 35.449999999999996" height="194.73866666666663" data-palette-color="#102e44"><path d="M16.55 0.05Q15.1 0.05 13.9-0.65 12.7-1.35 12.05-2.6L12.05-2.6Q10.55-5.4 6.6-18.5L6.6-18.5Q4.8-24.5 4.05-27.25L4.05-27.25 2.45-32.7Q2.35-33.1 2.35-33.35L2.35-33.35Q2.35-34.25 3.13-34.83 3.9-35.4 4.95-35.4L4.95-35.4Q6.75-35.4 7.1-34.2L7.1-34.2Q8.85-28.5 9.95-24.4L9.95-24.4 11.35-19.4Q13.05-13.75 13.9-11.1 14.75-8.45 15.33-7.33 15.9-6.2 16.45-6.2L16.45-6.2Q17.05-6.2 17.6-7.3 18.15-8.4 18.95-11.05 19.75-13.7 21.3-19.4L21.3-19.4Q23.05-26.3 25.2-34.15L25.2-34.15Q25.6-35.35 27.35-35.35L27.35-35.35Q28.6-35.35 29.38-34.8 30.15-34.25 30.15-33.25L30.15-33.25Q30.15-33 30.05-32.5L30.05-32.5Q28.05-25 26.75-20.6L26.75-20.6Q26.65-20.2 26.2-18.6L26.2-18.6Q22.4-5.35 21.1-2.6L21.1-2.6Q20.55-1.4 19.3-0.68 18.05 0.05 16.55 0.05L16.55 0.05Z" opacity="1" transform="matrix(1,0,0,1,0,0)" fill="#ffffff" class="wordmark-text-0" data-fill-palette-color="quaternary" id="text-0"></path></svg></g></svg></g></svg></g></svg></g><g></g></svg></g><defs></defs></svg><rect width="264.25130666666666" height="247.19999999999996" fill="none" stroke="none" visibility="hidden"></rect></g></svg></g></svg>